<?xml version='1.0' encoding='UTF-8'?>
<svg xmlns="http://www.w3.org/2000/svg" width="800" height="800" viewBox="1880 220 800 800" fill="none"><defs>
<linearGradient id="paint0_linear_0_1" x1="1031.57" y1="648.147" x2="1329.32" y2="936.653" gradientUnits="userSpaceOnUse">
<stop stop-color="#F1871C"/>
<stop offset="1" stop-color="#FFB55E"/>
</linearGradient>
<linearGradient id="paint1_linear_0_1" x1="1931.57" y1="648.147" x2="2229.31" y2="936.653" gradientUnits="userSpaceOnUse">
<stop stop-color="#F1871C"/>
<stop offset="1" stop-color="#FFB55E"/>
</linearGradient>
<linearGradient id="paint2_linear_0_1" x1="1953.81" y1="1566.35" x2="2232.55" y2="1836.44" gradientUnits="userSpaceOnUse">
<stop stop-color="#F1871C"/>
<stop offset="1" stop-color="#FFB55E"/>
</linearGradient>
<linearGradient id="paint3_linear_0_1" x1="1053.81" y1="2486.35" x2="1332.55" y2="2756.44" gradientUnits="userSpaceOnUse">
<stop stop-color="#F1871C"/>
<stop offset="1" stop-color="#FFB55E"/>
</linearGradient>
<linearGradient id="paint4_linear_0_1" x1="1916.36" y1="3792.25" x2="2045.94" y2="3917.81" gradientUnits="userSpaceOnUse">
<stop stop-color="#F1871C"/>
<stop offset="1" stop-color="#FFB55E"/>
</linearGradient>
<linearGradient id="paint5_linear_0_1" x1="239.968" y1="4459.39" x2="445.083" y2="4658.14" gradientUnits="userSpaceOnUse">
<stop stop-color="#F1871C"/>
<stop offset="1" stop-color="#FFB55E"/>
</linearGradient>
<linearGradient id="paint6_linear_0_1" x1="1031.57" y1="6428.15" x2="1329.32" y2="6716.65" gradientUnits="userSpaceOnUse">
<stop stop-color="#F1871C"/>
<stop offset="1" stop-color="#FFB55E"/>
</linearGradient>
<clipPath id="clip0_0_1">
<rect x="80" y="220" width="800" height="800" rx="32" fill="white"/>
</clipPath>
<clipPath id="clip1_0_1">
<rect width="1140.44" height="1140.44" fill="white" transform="translate(-90.2206 62.9213)"/>
</clipPath>
<clipPath id="clip2_0_1">
<rect x="980" y="220" width="800" height="800" rx="32" fill="white"/>
</clipPath>
<clipPath id="clip3_0_1">
<rect width="1140.44" height="1140.44" fill="white" transform="translate(809.78 62.9213)"/>
</clipPath>
<clipPath id="clip4_0_1">
<rect x="1880" y="220" width="800" height="800" rx="32" fill="white"/>
</clipPath>
<clipPath id="clip5_0_1">
<rect width="1140.44" height="1140.44" fill="white" transform="translate(1709.78 62.9213)"/>
</clipPath>
<clipPath id="clip6_0_1">
<rect x="80" y="1140" width="800" height="800" rx="32" fill="white"/>
</clipPath>
<clipPath id="clip7_0_1">
<rect width="1140.44" height="1140.44" fill="white" transform="translate(-90.2206 982.921)"/>
</clipPath>
<clipPath id="clip8_0_1">
<rect x="980" y="1140" width="800" height="800" rx="32" fill="white"/>
</clipPath>
<clipPath id="clip9_0_1">
<rect width="1140.44" height="1140.44" fill="white" transform="translate(809.78 982.921)"/>
</clipPath>
<clipPath id="clip10_0_1">
<rect x="1880" y="1140" width="800" height="800" rx="400" fill="white"/>
</clipPath>
<clipPath id="clip11_0_1">
<rect x="80" y="2060" width="800" height="800" rx="400" fill="white"/>
</clipPath>
<clipPath id="clip12_0_1">
<rect width="1067.65" height="1067.65" fill="white" transform="translate(-53.8235 1938.48)"/>
</clipPath>
<clipPath id="clip13_0_1">
<rect x="980" y="2060" width="800" height="800" rx="180" fill="white"/>
</clipPath>
<clipPath id="clip14_0_1">
<rect width="1067.65" height="1067.65" fill="white" transform="translate(846.176 1938.48)"/>
</clipPath>
<clipPath id="clip15_0_1">
<rect x="1880" y="2060" width="800" height="800" rx="180" fill="white"/>
</clipPath>
<clipPath id="clip16_0_1">
<rect width="1140.44" height="1140.44" fill="white" transform="translate(1709.78 1902.92)"/>
</clipPath>
<clipPath id="clip17_0_1">
<rect x="980" y="3520" width="800" height="520" rx="28" fill="white"/>
</clipPath>
<clipPath id="clip18_0_1">
<rect x="1880" y="3520" width="800" height="520" rx="28" fill="white"/>
</clipPath>
<clipPath id="clip19_0_1">
<rect x="80" y="4160" width="800" height="800" rx="28" fill="white"/>
</clipPath>
<clipPath id="clip20_0_1">
<rect x="980" y="4160" width="800" height="800" rx="32" fill="white"/>
</clipPath>
<clipPath id="clip21_0_1">
<rect width="1140.44" height="1140.44" fill="white" transform="translate(809.779 4002.92)"/>
</clipPath>
<clipPath id="clip22_0_1">
<rect x="1880" y="4160" width="800" height="800" rx="32" fill="white"/>
</clipPath>
<clipPath id="clip23_0_1">
<rect width="1140.44" height="1140.44" fill="white" transform="translate(1709.78 4002.92)"/>
</clipPath>
<clipPath id="clip24_0_1">
<rect x="80" y="5080" width="800" height="800" rx="400" fill="white"/>
</clipPath>
<clipPath id="clip25_0_1">
<rect x="980" y="5080" width="800" height="800" rx="180" fill="white"/>
</clipPath>
<clipPath id="clip26_0_1">
<rect width="1067.65" height="1067.65" fill="white" transform="translate(846.176 4958.48)"/>
</clipPath>
<clipPath id="clip27_0_1">
<rect x="1880" y="5080" width="800" height="800" rx="180" fill="white"/>
</clipPath>
<clipPath id="clip28_0_1">
<rect x="80" y="6000" width="800" height="800" rx="170" fill="white"/>
</clipPath>
<clipPath id="clip29_0_1">
<rect width="1140.44" height="1140.44" fill="white" transform="translate(-90.2206 5842.92)"/>
</clipPath>
<clipPath id="clip30_0_1">
<rect x="980" y="6000" width="800" height="800" rx="170" fill="white"/>
</clipPath>
<clipPath id="clip31_0_1">
<rect width="1140.44" height="1140.44" fill="white" transform="translate(809.779 5842.92)"/>
</clipPath>
<clipPath id="clip32_0_1">
<rect x="1880" y="6000" width="800" height="520" rx="28" fill="white"/>
</clipPath>
<clipPath id="clip33_0_1">
<rect x="80" y="6920" width="800" height="800" rx="32" fill="white"/>
</clipPath>
<clipPath id="clip34_0_1">
<rect width="785.649" height="785.649" fill="white" transform="translate(87.1757 6816.23)"/>
</clipPath>
<clipPath id="clip35_0_1">
<rect x="980" y="6920" width="800" height="800" rx="32" fill="white"/>
</clipPath>
<clipPath id="clip36_0_1">
<rect width="785.649" height="785.649" fill="white" transform="translate(987.176 6816.23)"/>
</clipPath>
</defs>
<g id="03 â Isotipo gradiente Â· SVG">
<g clip-path="url(#clip4_0_1)">
<rect x="1880" y="220" width="800" height="800" rx="32" fill="#FBF7F2"/>
<g id="KORA Isotipo_3" clip-path="url(#clip5_0_1)">
<path id="Vector_13" d="M2020.55 616.035C2020.55 438.517 2136.62 319.521 2280 319.521C2423.38 319.521 2539.45 438.517 2539.45 616.035" stroke="#171414" stroke-width="56.5719" stroke-linecap="round"/>
<path id="Vector_14" d="M2067.88 596.648C2067.88 569.564 2045.92 547.609 2018.84 547.609C1991.76 547.609 1969.8 569.564 1969.8 596.648V720.746C1969.8 747.83 1991.76 769.785 2018.84 769.785C2045.92 769.785 2067.88 747.83 2067.88 720.746V596.648Z" fill="#171414"/>
<path id="Vector_15" d="M2590.2 596.648C2590.2 569.564 2568.24 547.609 2541.16 547.609C2514.08 547.609 2492.12 569.564 2492.12 596.648V720.746C2492.12 747.83 2514.08 769.785 2541.16 769.785C2568.24 769.785 2590.2 747.83 2590.2 720.746V596.648Z" fill="#171414"/>
<path id="pinHeart_7" d="M2280 920.48L2117.4 744.513C2060.6 683.259 2062.83 590.821 2119.63 536.249C2170.86 487.246 2247.7 483.904 2280 544.045C2312.3 483.904 2389.14 487.246 2440.37 536.249C2497.17 590.821 2499.4 683.259 2442.6 744.513L2280 920.48Z" fill="#171414"/>
<g id="Clip path group_5">
<mask id="mask4_0_1" style="mask-type:luminance" maskUnits="userSpaceOnUse" x="1709" y="62" width="571" height="1142">
<g id="leftHalf_3">
<path id="Vector_16" d="M2280 62.9213H1709.78V1203.36H2280V62.9213Z" fill="white"/>
</g>
</mask>
<g mask="url(#mask4_0_1)">
<path id="pinHeart_8" d="M2280 920.48L2117.4 744.513C2060.6 683.259 2062.83 590.821 2119.63 536.249C2170.86 487.246 2247.7 483.904 2280 544.045C2312.3 483.904 2389.14 487.246 2440.37 536.249C2497.17 590.821 2499.4 683.259 2442.6 744.513L2280 920.48Z" fill="#171414"/>
</g>
</g>
<g id="Clip path group_6">
<mask id="mask5_0_1" style="mask-type:luminance" maskUnits="userSpaceOnUse" x="2279" y="62" width="572" height="1142">
<g id="rightHalf_3">
<path id="Vector_17" d="M2850.22 62.9213H2280V1203.36H2850.22V62.9213Z" fill="white"/>
</g>
</mask>
<g mask="url(#mask5_0_1)">
<path id="pinHeart_9" d="M2280 920.48L2117.4 744.513C2060.6 683.259 2062.83 590.821 2119.63 536.249C2170.86 487.246 2247.7 483.904 2280 544.045C2312.3 483.904 2389.14 487.246 2440.37 536.249C2497.17 590.821 2499.4 683.259 2442.6 744.513L2280 920.48Z" fill="url(#paint1_linear_0_1)"/>
</g>
</g>
<path id="Vector_18" d="M2350.16 654.302C2369.23 654.302 2384.69 638.845 2384.69 619.777C2384.69 600.71 2369.23 585.252 2350.16 585.252C2331.1 585.252 2315.64 600.71 2315.64 619.777C2315.64 638.845 2331.1 654.302 2350.16 654.302Z" fill="#FBF7F2"/>
</g>
</g>
</g>
</svg>