<?xml version="1.0" encoding="utf-8"?>
<svg xmlns="http://www.w3.org/2000/svg" viewBox="686.0779 383.9578 934.9803 251.5313" width="934.98px" height="251.531px" preserveAspectRatio="none"><defs><clipPath clipPathUnits="userSpaceOnUse" id="clipPath5"><path d="M 0,0 H 2965 V 999 H 0 Z" transform="matrix(0.25065141,0,0,0.25065141,-11.996898,-198.15868)" id="path5"/></clipPath><clipPath clipPathUnits="userSpaceOnUse" id="clipPath6"><path d="M 0,0 H 2965 V 999 H 0 Z" transform="matrix(0.25065141,0,0,0.25065141,-193.09065,-198.15868)" id="path6"/></clipPath><clipPath clipPathUnits="userSpaceOnUse" id="clipPath7"><path d="M 0,0 H 2965 V 999 H 0 Z" transform="matrix(0.25065141,0,0,0.25065141,-377.40314,-198.15868)" id="path7"/></clipPath><clipPath clipPathUnits="userSpaceOnUse" id="clipPath8"><path d="M 0,0 H 2965 V 999 H 0 Z" transform="matrix(0.25065141,0,0,0.25065141,-570.40314,-198.15868)" id="path8"/></clipPath><clipPath clipPathUnits="userSpaceOnUse" id="clipPath9"><path d="M 0,0 H 2965 V 999 H 0 Z" transform="matrix(0.25065141,0,0,0.25065141,-1.0332561,-187.19503)" id="path9"/></clipPath><clipPath clipPathUnits="userSpaceOnUse" id="clipPath10"><path d="M 0,0 H 2965 V 999 H 0 Z" transform="matrix(0.25065141,0,0,0.25065141,-182.127,-187.19503)" id="path10"/></clipPath><clipPath clipPathUnits="userSpaceOnUse" id="clipPath11"><path d="M 0,0 H 2965 V 999 H 0 Z" transform="matrix(0.25065141,0,0,0.25065141,-366.4395,-187.19503)" id="path11"/></clipPath><clipPath clipPathUnits="userSpaceOnUse" id="clipPath12"><path d="M 0,0 H 2965 V 999 H 0 Z" transform="matrix(0.25065141,0,0,0.25065141,-559.43949,-187.19503)" id="path12"/></clipPath></defs><g id="g5" transform="matrix(1, 0, 0, 1, 190.9240431705418, 1.3835010631642604)"><g id="g20"><path d="m 54.326733,-182.82257 c 1.321795,7.60644 2.105081,15.79422 2.349858,24.56335 0.250896,8.76301 -0.201941,17.77691 -1.358512,27.03559 -0.660897,5.78592 -1.490078,11.57489 -2.484484,17.36692 -0.988286,5.78591 -1.979632,11.57182 -2.974038,17.354671 3.80016,-0.823062 7.685991,-1.566572 11.651375,-2.227469 3.971503,-0.660897 8.028678,-1.15657 12.165406,-1.493142 l 31.747552,-82.59992 h 56.81269 c -3.47583,0.98829 -7.03428,3.5921 -10.67227,7.80838 -3.64106,4.21934 -7.23927,9.43002 -10.79466,15.629 -3.54926,6.20203 -6.93942,12.89973 -10.17047,20.09617 -3.22494,7.19644 -6.19897,14.3531 -8.92212,21.46692 -2.7262,7.10771 -5.16479,13.55452 -7.31882,19.337369 8.76301,1.820527 16.61422,4.965909 23.55976,9.436145 6.95166,4.464116 12.48974,10.623312 16.62035,18.480647 4.13672,7.851215 6.20509,17.81363 6.20509,29.887244 0,2.64359 -0.29067,5.871583 -0.86896,9.680922 -0.58134,3.803219 -1.11985,7.685991 -1.61553,11.651375 -0.48955,3.965384 -0.61194,7.685991 -0.36716,11.1618209 0.2509,3.4758302 1.20246,6.2050913 2.85165,8.18778325 H 92.781166 C 103.19948,-10.57927 110.35002,-19.9634 114.23585,-28.148123 c 3.88277,-8.190843 5.28718,-15.347505 4.21016,-21.466924 -1.0709,-6.11942 -4.0021,-11.201597 -8.79972,-15.249593 -4.79763,-4.054116 -10.715108,-7.196438 -17.746321,-9.423906 -7.025093,-2.233589 -14.509143,-3.641055 -22.446031,-4.2224 -7.939946,-0.578285 -15.543325,-0.370225 -22.813195,0.624181 -1.493139,8.267336 -2.735381,16.617284 -3.720607,25.052903 -1.15963,9.760474 -0.95463,19.517889 0.611941,29.275303 1.572691,9.751295 5.17091,17.60557 10.794656,23.55976515 H 2.225996 C 1.0755451,-7.7735163 0.37181186,-16.043912 0.12091566,-24.80692 c -0.24171707,-8.763009 0.21111997,-17.856467 1.37074994,-27.280373 1.6461239,-12.899736 3.6288158,-25.71686 5.9480758,-38.454432 2.3162002,-12.734515 4.3019516,-25.554695 5.9603146,-38.454435 1.321795,-9.91958 1.236123,-19.84221 -0.257016,-29.76485 -1.487019,-9.91958 -5.1250135,-17.94214 -10.917044,-24.06156 z m 0,0" style="fill:#000000;fill-opacity:0.4;fill-rule:nonzero;stroke:none" aria-label="K" transform="matrix(1.2766734,0,0,1.2766734,509.0761,634.10393)" clip-path="url(#clipPath5)" id="path13"/><path d="m 164.72235,-101.45877 c 0.16217,8.934354 -0.87508,18.404155 -3.10866,28.406346 -2.22747,10.005251 -5.36979,19.514829 -9.42391,28.528734 -4.05717,9.007785 -8.8089,16.491835 -14.25825,22.446031 -5.29635,5.957255 -11.376,10.507043 -18.23587,13.6463051 -6.86293,3.1423219 -13.93392,5.3330741 -21.209905,6.5722565 -7.279049,1.24224219 -14.389815,1.86030355 -21.332296,1.86030355 -11.91451,0 -22.580658,-0.94851002 -32.004564,-2.85164945 C 35.724989,-4.7505231 27.745266,-8.4711301 21.209726,-14.012264 14.674186,-19.550339 9.6256647,-27.735063 6.0702819,-38.563375 2.5210186,-49.397808 0.49549079,-63.665234 -1.8218463e-4,-81.362595 -0.1623468,-90.296948 0.86877538,-99.76369 3.0962441,-109.76894 c 2.2335881,-10.00219 5.37591,-19.55155 9.4239059,-28.65112 4.054115,-9.09652 8.729352,-16.53773 14.02571,-22.32364 5.458522,-5.9542 11.617717,-10.50399 18.480646,-13.64631 6.85987,-3.13926 13.970635,-5.33001 21.332297,-6.57226 7.358602,-1.23918 14.429591,-1.8603 21.209908,-1.8603 11.902271,0 22.525579,0.95157 31.869939,2.85165 9.35047,1.90314 17.33019,5.62375 23.93917,11.16182 6.61509,5.54113 11.70339,13.72892 15.26183,24.56335 3.55538,10.82831 5.58397,25.08962 6.0827,42.78698 z m -23.32723,-14.13586 c 1.3218,-13.56063 0.24478,-23.44043 -3.23105,-29.64247 -3.46971,-6.20815 -7.10465,-8.9833 -10.9048,-8.32241 -3.47583,0.67008 -8.3163,2.16322 -14.51527,4.47942 -6.20203,2.31008 -13.107794,5.36673 -20.720352,9.16689 -7.606438,3.80322 -15.255713,8.23062 -22.947823,13.27914 -7.685991,5.0424 -14.879369,10.70592 -21.577073,16.98751 -6.691585,6.28464 -12.186824,12.982346 -16.485716,20.096171 -4.301952,7.107706 -6.865989,14.631532 -7.69823,22.568419 -0.826122,8.934353 -0.575225,16.253179 0.746569,21.956478 1.321795,5.703299 3.261651,9.840026 5.825688,12.410182 2.570156,2.564037 5.094416,3.677771 7.575841,3.341203 3.466651,-0.660897 8.300992,-2.10508 14.503024,-4.332549 6.198972,-2.233588 13.101677,-5.253521 20.708116,-9.056741 7.612557,-3.800159 15.261832,-8.264276 22.947823,-13.389289 7.692113,-5.131134 14.888543,-10.797716 21.589313,-16.999748 6.6977,-6.198972 12.23884,-12.899736 16.62034,-20.096173 4.38151,-7.196433 6.90271,-14.677423 7.5636,-22.446033 z m 0,0" style="fill:#000000;fill-opacity:0.4;fill-rule:nonzero;stroke:none" aria-label="O" transform="matrix(1.2766734,0,0,1.2766734,740.27367,634.10393)" clip-path="url(#clipPath6)" id="path14"/><path d="m 54.329379,-182.82257 c 0.823062,4.96285 1.483959,10.21331 1.982692,15.75139 0.495673,5.54113 0.578285,11.20465 0.244777,16.9875 4.797625,-5.78285 10.586596,-11.1557 17.366912,-16.11855 6.780317,-4.95979 14.013471,-8.97107 21.699462,-12.03078 7.692108,-3.05971 15.427058,-4.58956 23.204838,-4.58956 12.73451,0 23.11305,2.35904 31.13561,7.07405 8.0195,4.70889 13.97063,11.07309 17.85646,19.09259 3.88277,8.02256 5.82569,16.99363 5.82569,26.9132 0,9.43309 -1.94292,18.24199 -5.82569,26.42366 -3.88583,8.184721 -9.34435,15.04765 -16.37556,20.585725 -7.0251,5.541134 -15.33527,8.971069 -24.93052,10.292863 -6.28464,0.832241 -12.77429,1.086197 -19.47199,0.758808 -6.70077,-0.333508 -13.358694,-0.581345 -19.973787,-0.746569 -6.608973,-0.171344 -13.141453,0.403882 -19.594381,1.725676 -8.438679,1.658363 -14.683547,4.01434 -18.737662,7.074049 -4.047996,3.05971 -4.74867,6.202032 -2.105081,9.423906 2.649709,3.224934 9.766594,5.831807 21.344536,7.820618 6.942481,1.15963 14.919144,1.780752 23.92693,1.860304 9.013905,0.08261 17.945195,-0.538509 26.790815,-1.860304 8.85174,-1.321794 16.83147,-3.634935 23.93917,-6.939421 7.11383,-3.310606 12.32757,-7.69823 15.64124,-13.156752 l 15.37198,53.079844 c -7.44121,5.4585227 -15.75139,9.0567413 -24.93051,10.7946565 -9.17913,1.73791509 -17.32408,2.60687265 -24.42873,2.60687265 -9.59525,0 -19.3955,-0.90873379 -29.397688,-2.72926105 C 84.883641,-4.5455225 75.374063,-7.6052323 66.360158,-11.907184 57.343193,-16.206076 49.36347,-21.909375 42.420989,-29.017081 c 0.823062,5.623746 2.144856,10.996597 3.965384,16.118551 1.817467,5.1250137 4.467176,9.4239059 7.943006,12.89973615 H 2.2286417 C 1.0781908,-7.7735163 0.3744576,-16.043912 0.1235614,-24.80692 c -0.24171707,-8.763009 0.21111997,-17.856467 1.37075,-27.280373 1.6461238,-12.899736 3.6288157,-25.71686 5.9480757,-38.454432 2.3162003,-12.734515 4.3019519,-25.554695 5.9603149,-38.454435 1.321794,-9.91958 1.236122,-19.84221 -0.257016,-29.76485 -1.487019,-9.91958 -5.1250138,-17.94214 -10.9170443,-24.06156 z m -7.441214,99.477283 c 3.637995,-3.475831 8.349948,-6.413152 14.135859,-8.811964 5.792031,-2.398813 11.91145,-4.546729 18.358259,-6.449868 6.452927,-1.900081 12.612123,-3.592101 18.480646,-5.079121 5.874641,-1.49314 10.629431,-2.98015 14.270491,-4.46717 5.62068,-2.3162 10.04196,-5.53808 13.2669,-9.66869 3.22187,-4.13672 5.24434,-8.47539 6.07046,-13.02212 0.83224,-4.55285 0.41918,-8.72935 -1.23612,-12.53257 -1.64919,-3.80934 -4.50083,-6.74666 -8.55495,-8.81197 -4.05718,-2.06224 -9.47286,-2.5212 -16.25318,-1.37075 -7.606437,1.33098 -14.63459,4.43658 -21.087518,9.31376 -6.446808,4.88024 -12.150107,10.7916 -17.109897,17.73408 -4.962849,6.94554 -9.139353,14.18175 -12.532571,21.7117 -3.387098,7.523824 -5.990911,14.674366 -7.808379,21.454683 z m 0,0" style="fill:#000000;fill-opacity:0.4;fill-rule:nonzero;stroke:none" aria-label="R" transform="matrix(1.2766734,0,0,1.2766734,975.58053,634.10393)" clip-path="url(#clipPath7)" id="path15"/><path d="m 47.632046,-66.724944 c 2.307021,0 5.531955,-0.618061 9.668683,-1.860303 4.136727,-1.239183 8.766068,-2.646649 13.891082,-4.2224 5.131133,-1.572691 10.298983,-2.854709 15.506609,-3.842995 5.204566,-0.994406 9.999131,-1.242242 14.38064,-0.74657 4.38762,0.498733 7.90629,2.236648 10.54987,5.213746 1.65531,-10.090923 3.39322,-20.304234 5.21375,-30.633814 1.81747,-10.3357 3.30755,-20.4664 4.46718,-30.38904 -5.79509,5.94808 -12.20825,11.6116 -19.23946,16.98751 -7.025092,5.37897 -14.096081,10.67227 -21.209906,15.88601 -7.107706,5.20763 -13.597351,10.537645 -19.471993,15.996167 -5.868524,5.452403 -10.451969,11.320926 -13.756455,17.611689 z m 54.817764,15.873774 c -3.475835,-2.814933 -8.233683,-4.176504 -14.270491,-4.087772 -6.030688,0.08261 -12.272496,1.199406 -18.725423,3.353442 -6.446809,2.147916 -12.110332,5.039342 -16.987509,8.677337 -4.880237,3.631875 -7.90017,7.597259 -9.056741,11.896151 -1.15963,5.134193 -0.498732,10.678387 1.982692,16.632582 2.478365,5.9480761 5.538075,10.7426413 9.179129,14.38063615 H 2.7277456 C 1.5681156,-7.6021726 0.73893422,-15.866449 0.24326124,-24.794682 c -0.49567298,-8.934352 0.0795525,-17.70042 1.73791516,-26.301265 1.6553029,-8.597784 5.0454613,-16.12467 10.1704756,-22.580657 4.959789,-6.281585 11.039432,-12.275556 18.23587,-17.978855 7.196437,-5.709418 14.637651,-11.250551 22.323642,-16.620341 7.69211,-5.37591 14.845712,-10.70899 21.454685,-15.99616 6.615092,-5.2933 11.825778,-10.50705 15.628997,-15.64124 -6.284644,1.99187 -13.352573,3.89807 -21.209908,5.71554 -7.851215,1.81135 -15.332205,3.21575 -22.446031,4.21016 -7.116884,0.99746 -12.823243,1.32791 -17.122135,0.99134 -5.287179,-0.49567 -10.289804,-1.77769 -15.004817,-3.84299 -4.7088932,-2.06225 -8.7201727,-5.16479 -12.0307786,-9.30152 l 12.4101826,-43.91295 c 3.304487,4.30195 8.717113,7.19643 16.240939,8.68957 7.520767,1.48702 16.035939,2.10508 25.542457,1.86031 9.512638,-0.2509 19.230276,-0.95463 29.152915,-2.10508 9.928758,-1.15658 19.14766,-2.27643 27.65978,-3.35345 8.51823,-1.07701 15.34138,-1.69508 20.47557,-1.8603 9.75742,-0.17134 16.86818,2.10202 21.3323,6.81703 4.46106,4.71808 7.06487,11.00272 7.80838,18.86005 0.74963,7.85122 0.54463,16.654 -0.61194,26.41142 -1.65837,12.89973 -3.72673,25.88514 -6.20509,38.956223 -2.48143,13.06496 -4.46718,26.126861 -5.96032,39.188762 -1.32179,9.922639 -1.15657,19.680053 0.50179,29.275303 1.65531,9.58913 5.2933,17.360793 10.91705,23.31498815 h -51.84372 c -1.33098,-3.80015945 -2.03777,-8.18166385 -2.11732,-13.14451315 -0.0826,-4.959789 0,-9.962415 0.24477,-15.004816 0.2509,-5.048522 0.0887,-9.59831 -0.48955,-13.646306 -0.58134,-4.054115 -2.1112,-7.074049 -4.58956,-9.056741 z m 0,0" style="fill:#000000;fill-opacity:0.4;fill-rule:nonzero;stroke:none" aria-label="A" transform="matrix(1.2766734,0,0,1.2766734,1221.9785,634.10393)" clip-path="url(#clipPath8)" id="path16"/><path d="m 54.327437,-182.82491 c 1.321794,7.60644 2.10508,15.79422 2.349857,24.56335 0.250896,8.76301 -0.201941,17.77691 -1.358511,27.03559 -0.660898,5.78592 -1.490079,11.57489 -2.484485,17.36692 -0.988286,5.78591 -1.979632,11.57182 -2.974038,17.35467 3.80016,-0.823062 7.685991,-1.566571 11.651375,-2.227468 3.971503,-0.660898 8.028678,-1.156571 12.165406,-1.493142 l 31.747549,-82.59992 h 56.81269 c -3.47583,0.98829 -7.03427,3.5921 -10.67227,7.80838 -3.64105,4.21934 -7.23927,9.43002 -10.79465,15.629 -3.54927,6.20203 -6.93943,12.89973 -10.17048,20.09617 -3.22493,7.19644 -6.19897,14.3531 -8.92211,21.46692 -2.7262,7.10771 -5.16479,13.55452 -7.31883,19.337368 8.76301,1.820528 16.61423,4.965909 23.55977,9.436145 6.95166,4.464117 12.48973,10.623312 16.62034,18.480647 4.13673,7.851215 6.20509,17.81363 6.20509,29.887245 0,2.643589 -0.29067,5.871583 -0.86896,9.680922 -0.58134,3.803219 -1.11985,7.68599 -1.61552,11.651374 -0.48956,3.965384 -0.61194,7.685991 -0.36717,11.1618213 0.2509,3.4758303 1.20247,6.2050914 2.85165,8.18778332 H 92.781869 C 103.20018,-10.581611 110.35072,-19.96574 114.23655,-28.150464 c 3.88278,-8.190843 5.28718,-15.347504 4.21016,-21.466924 -1.07089,-6.119419 -4.0021,-11.201597 -8.79972,-15.249593 -4.79763,-4.054115 -10.715105,-7.196437 -17.746318,-9.423906 -7.025093,-2.233588 -14.509143,-3.641055 -22.44603,-4.222399 -7.939947,-0.578286 -15.543326,-0.370225 -22.813196,0.62418 -1.493139,8.267336 -2.735381,16.617284 -3.720607,25.052904 -1.15963,9.760474 -0.95463,19.517888 0.611942,29.275303 1.57269,9.751295 5.170909,17.6055695 10.794656,23.55976462 H 2.2266991 C 1.0762482,-7.7758568 0.37251499,-16.046252 0.12161879,-24.809261 -0.12009828,-33.57227 0.33273876,-42.665727 1.4923688,-52.089633 c 1.6461238,-12.899736 3.6288157,-25.71686 5.9480757,-38.454432 2.3162003,-12.734515 4.3019515,-25.554695 5.9603145,-38.454435 1.321795,-9.91958 1.236123,-19.84221 -0.257016,-29.76485 -1.487018,-9.91958 -5.1250134,-17.94214 -10.9170439,-24.06156 z m 0,0" style="fill:#000000;fill-opacity:1;fill-rule:nonzero;stroke:none" aria-label="K" transform="matrix(1.2766734,0,0,1.2766734,495.07911,620.10692)" clip-path="url(#clipPath9)" id="path17"/><path d="m 164.72305,-101.46111 c 0.16217,8.934353 -0.87507,18.404155 -3.10866,28.406346 -2.22747,10.005251 -5.36979,19.514829 -9.42391,28.528733 -4.05717,9.007786 -8.8089,16.491836 -14.25824,22.446031 -5.29636,5.957255 -11.376,10.507043 -18.23587,13.6463056 -6.86293,3.1423219 -13.93392,5.333074 -21.209912,6.5722565 -7.279049,1.24224215 -14.389815,1.86030352 -21.332296,1.86030352 -11.91451,0 -22.580658,-0.94851003 -32.004564,-2.85164952 C 35.725692,-4.7528636 27.745969,-8.4734707 21.210429,-14.014605 14.674889,-19.55268 9.6263678,-27.737403 6.0709851,-38.565716 2.5217218,-49.400148 0.49619392,-63.667575 5.2094493e-4,-81.364936 -0.16164367,-90.299288 0.86947851,-99.76603 3.0969472,-109.77128 c 2.2335881,-10.00219 5.37591,-19.55155 9.4239058,-28.65112 4.054116,-9.09652 8.729352,-16.53773 14.02571,-22.32365 5.458522,-5.95419 11.617718,-10.50398 18.480647,-13.6463 6.859869,-3.13926 13.970634,-5.33002 21.332296,-6.57226 7.358602,-1.23918 14.429591,-1.8603 21.209908,-1.8603 11.902271,0 22.525586,0.95157 31.869936,2.85165 9.35047,1.90314 17.3302,5.62375 23.93917,11.16182 6.61509,5.54113 11.70339,13.72892 15.26183,24.56335 3.55538,10.82831 5.58397,25.08962 6.0827,42.78698 z m -23.32722,-14.13586 c 1.32179,-13.56063 0.24477,-23.44043 -3.23106,-29.64247 -3.46971,-6.20815 -7.10464,-8.9833 -10.9048,-8.32241 -3.47583,0.67008 -8.31629,2.16322 -14.51526,4.47942 -6.20204,2.31008 -13.107801,5.36673 -20.720359,9.16689 -7.606438,3.80322 -15.255713,8.23062 -22.947823,13.27914 -7.685991,5.0424 -14.879368,10.70592 -21.577073,16.98751 -6.691585,6.28464 -12.186824,12.982346 -16.485716,20.096171 -4.301952,7.107706 -6.865989,14.631532 -7.69823,22.568419 -0.826121,8.934352 -0.575225,16.253178 0.746569,21.956477 1.321795,5.703299 3.261651,9.840027 5.825688,12.410183 2.570156,2.564037 5.094416,3.677771 7.575841,3.341203 3.466651,-0.660898 8.300993,-2.105081 14.503024,-4.332549 6.198972,-2.233588 13.101677,-5.253522 20.708116,-9.056741 7.612558,-3.80016 15.261832,-8.264276 22.947823,-13.38929 7.69211,-5.131133 14.88855,-10.797716 21.58931,-16.999747 6.69771,-6.198972 12.23884,-12.899736 16.62035,-20.096174 4.3815,-7.196442 6.9027,-14.677432 7.5636,-22.446032 z m 0,0" style="fill:#e15524;fill-opacity:1;fill-rule:nonzero;stroke:none" aria-label="O" transform="matrix(1.2766734,0,0,1.2766734,726.27668,620.10692)" clip-path="url(#clipPath10)" id="path18"/><path d="m 54.327023,-182.82491 c 0.823062,4.96285 1.483959,10.21331 1.982692,15.75138 0.495673,5.54114 0.578285,11.20466 0.244776,16.98751 4.797625,-5.78285 10.586596,-11.1557 17.366913,-16.11855 6.780317,-4.95979 14.01347,-8.97107 21.699461,-12.03078 7.692115,-3.05971 15.427055,-4.58956 23.204835,-4.58956 12.73452,0 23.11305,2.35904 31.13561,7.07405 8.0195,4.70889 13.97064,11.07309 17.85647,19.09259 3.88277,8.02256 5.82568,16.99362 5.82568,26.9132 0,9.43309 -1.94291,18.24199 -5.82568,26.42366 -3.88583,8.184721 -9.34436,15.04765 -16.37557,20.585724 -7.02509,5.541135 -15.33527,8.971069 -24.93052,10.292864 -6.28464,0.832241 -12.77428,1.086197 -19.47199,0.758808 -6.70076,-0.333509 -13.358691,-0.581345 -19.973783,-0.746569 -6.608973,-0.171344 -13.141453,0.403881 -19.594381,1.725676 -8.43868,1.658363 -14.683547,4.014339 -18.737663,7.074049 -4.047996,3.05971 -4.748669,6.202031 -2.10508,9.423906 2.649709,3.224934 9.766593,5.831807 21.344535,7.820618 6.942481,1.15963 14.919145,1.780751 23.92693,1.860303 9.013902,0.08261 17.945202,-0.538508 26.790822,-1.860303 8.85174,-1.321795 16.83146,-3.634935 23.93917,-6.939422 7.11382,-3.310606 12.32757,-7.698229 15.64123,-13.156752 l 15.37198,53.079845 c -7.44121,5.4585221 -15.75138,9.0567408 -24.93051,10.7946559 -9.17913,1.73791515 -17.32408,2.60687272 -24.42872,2.60687272 -9.59525,0 -19.3955,-0.9087338 -29.397695,-2.72926112 -10.005251,-1.8174676 -19.514829,-4.8771773 -28.528734,-9.1791295 -9.016964,-4.298892 -16.996687,-10.002191 -23.939169,-17.109897 0.823062,5.623747 2.144857,10.996597 3.965384,16.118551 1.817468,5.1250142 4.467176,9.4239063 7.943007,12.89973662 H 2.2262851 C 1.0758343,-7.7758568 0.37210102,-16.046252 0.12120482,-24.809261 -0.12051225,-33.57227 0.33232479,-42.665727 1.4919548,-52.089633 c 1.6461238,-12.899736 3.6288157,-25.71686 5.9480757,-38.454432 2.3162003,-12.734515 4.3019515,-25.554695 5.9603145,-38.454435 1.321795,-9.91958 1.236123,-19.84221 -0.257016,-29.76485 -1.487018,-9.91958 -5.1250133,-17.94214 -10.9170439,-24.06156 z m -7.441214,99.477282 c 3.637994,-3.47583 8.349947,-6.413151 14.135859,-8.811964 5.79203,-2.398812 11.91145,-4.546729 18.358258,-6.449868 6.452928,-1.90008 12.612124,-3.5921 18.480647,-5.07912 5.874647,-1.49314 10.629427,-2.98016 14.270487,-4.46717 5.62069,-2.3162 10.04197,-5.53808 13.2669,-9.66869 3.22187,-4.13672 5.24434,-8.47539 6.07046,-13.02212 0.83225,-4.55285 0.41918,-8.72935 -1.23612,-12.53257 -1.64918,-3.80934 -4.50083,-6.74666 -8.55495,-8.81197 -4.05717,-2.06224 -9.47286,-2.5212 -16.25317,-1.37075 -7.606443,1.33098 -14.634596,4.43658 -21.087524,9.31376 -6.446809,4.88024 -12.150108,10.7916 -17.109897,17.73408 -4.962849,6.94554 -9.139353,14.18175 -12.532571,21.7117 -3.387099,7.523824 -5.990912,14.674365 -7.808379,21.454682 z m 0,0" style="fill:#000000;fill-opacity:1;fill-rule:nonzero;stroke:none" aria-label="R" transform="matrix(1.2766734,0,0,1.2766734,961.58354,620.10692)" clip-path="url(#clipPath11)" id="path19"/><path d="m 47.632749,-66.727284 c 2.307021,0 5.531955,-0.618062 9.668683,-1.860304 4.136727,-1.239182 8.766068,-2.646649 13.891082,-4.222399 5.131133,-1.572691 10.298983,-2.85471 15.506609,-3.842996 5.204566,-0.994406 9.999131,-1.242242 14.380637,-0.746569 4.38762,0.498733 7.90629,2.236648 10.54988,5.213745 1.6553,-10.090922 3.39322,-20.304233 5.21374,-30.633813 1.81747,-10.3357 3.30755,-20.4664 4.46718,-30.38904 -5.79509,5.94808 -12.20824,11.6116 -19.23946,16.98751 -7.025089,5.37897 -14.096078,10.67227 -21.209903,15.88601 -7.107706,5.20763 -13.59735,10.537644 -19.471993,15.996166 -5.868523,5.452403 -10.451969,11.320926 -13.756455,17.61169 z m 54.817761,15.873774 c -3.475832,-2.814933 -8.23368,-4.176504 -14.270488,-4.087773 -6.030688,0.08261 -12.272495,1.199407 -18.725423,3.353442 -6.446809,2.147917 -12.110331,5.039342 -16.987509,8.677337 -4.880237,3.631876 -7.90017,7.597259 -9.056741,11.896152 -1.15963,5.134193 -0.498732,10.678387 1.982692,16.632582 2.478365,5.9480756 5.538075,10.7426407 9.17913,14.38063562 H 2.7284487 C 1.5688187,-7.6045131 0.73963735,-15.868789 0.24396437,-24.797022 c -0.49567298,-8.934353 0.0795524,-17.700421 1.73791513,-26.301265 1.655303,-8.597784 5.0454614,-16.12467 10.1704755,-22.580658 4.959789,-6.281584 11.039432,-12.275555 18.23587,-17.978854 7.196437,-5.709419 14.637651,-11.250551 22.323642,-16.620341 7.69211,-5.37591 14.845712,-10.70899 21.454685,-15.99617 6.615092,-5.29329 11.825778,-10.50704 15.628997,-15.64123 -6.284644,1.99187 -13.352573,3.89807 -21.209908,5.71554 -7.851215,1.81134 -15.332205,3.21575 -22.44603,4.21016 -7.116885,0.99746 -12.823244,1.32791 -17.122136,0.99134 -5.287179,-0.49567 -10.289804,-1.77769 -15.004817,-3.84299 -4.7088931,-2.06225 -8.7201726,-5.16479 -12.0307785,-9.30152 l 12.4101825,-43.91295 c 3.304487,4.30195 8.717113,7.19643 16.24094,8.68957 7.520766,1.48702 16.035938,2.10508 25.542456,1.8603 9.512638,-0.25089 19.230276,-0.95462 29.152915,-2.10508 9.928758,-1.15657 19.147667,-2.27642 27.659777,-3.35344 8.51823,-1.07702 15.34138,-1.69508 20.47558,-1.8603 9.75741,-0.17134 16.86818,2.10202 21.33229,6.81703 4.46106,4.71807 7.06487,11.00272 7.80838,18.86005 0.74963,7.85122 0.54463,16.654 -0.61194,26.41142 -1.65836,12.89973 -3.72673,25.88514 -6.20509,38.956222 -2.48143,13.064961 -4.46718,26.126862 -5.96032,39.188763 -1.32179,9.922638 -1.15657,19.680053 0.5018,29.275302 1.6553,9.589131 5.29329,17.3607935 10.91704,23.31498862 H 109.40217 C 108.0712,-3.8012939 107.3644,-8.1827982 107.28485,-13.145647 c -0.0826,-4.95979 0,-9.962415 0.24478,-15.004817 0.25089,-5.048521 0.0887,-9.598309 -0.48956,-13.646305 -0.58134,-4.054116 -2.1112,-7.074049 -4.58956,-9.056741 z m 0,0" style="fill:#d69902;fill-opacity:1;fill-rule:nonzero;stroke:none" aria-label="A" transform="matrix(1.2766734,0,0,1.2766734,1207.9815,620.10692)" clip-path="url(#clipPath12)" id="path20"/></g></g></svg>